<svg width="301" height="301" viewBox="0 0 301 301" fill="none" xmlns="http://www.w3.org/2000/svg">
<path d="M220 71C225.523 71 230 75.4772 230 81V219C230 224.523 225.523 229 220 229H82C76.4772 229 72 224.523 72 219V81C72 75.4772 76.4772 71 82 71H220Z" fill="#D9D9D9"/>
<path d="M65.3507 6.6493C69.0873 2.91272 75.0861 2.72831 79.0452 6.22833L121.214 43.5079C128.113 49.6071 123.799 61 114.591 61H71C65.4772 61 61 65.4772 61 71V111.844C61 121.021 49.6727 125.351 43.5505 118.515L7.31361 78.0502C3.77186 74.0952 3.93801 68.062 7.69206 64.3079L65.3507 6.6493Z" fill="#A66030"/>
<path d="M294.398 64.3981C298.115 68.1152 298.32 74.0757 294.866 78.0389L257.539 120.873C251.466 127.842 240 123.547 240 114.303L240 70.1324C240 64.5581 235.442 60.06 229.868 60.1333L190.054 60.6572C180.891 60.7778 176.405 49.5346 183.135 43.3143L222.94 6.52546C226.883 2.88075 233.001 3.00114 236.798 6.79816L294.398 64.3981Z" fill="#A66130"/>
<path d="M236.466 293.534C232.805 297.195 226.956 297.456 222.983 294.136L178.15 256.674C170.978 250.681 175.216 239 184.563 239H230.87C236.443 239 240.941 234.444 240.869 228.871L240.342 187.987C240.223 178.769 251.58 174.313 257.76 181.153L294.626 221.947C298.197 225.898 298.044 231.956 294.278 235.722L236.466 293.534Z" fill="#A66131"/>
<path d="M7.60193 235.602C3.88479 231.885 3.68028 225.924 7.13391 221.961L44.4609 179.127C50.5338 172.158 62 176.453 62 185.697L62 230C62 235.523 66.4772 240 72 240L113.552 240C122.765 240 127.077 251.403 120.169 257.498L79.0444 293.784C75.0847 297.278 69.091 297.091 65.3571 293.357L7.60193 235.602Z" fill="#A66031"/>
<path d="M101.44 17.5813C94.408 11.5328 98.6856 0 107.961 0H194.176C203.311 0 207.664 11.2397 200.911 17.392L159.044 55.5376C155.308 58.9414 149.62 59.0227 145.788 55.7269L101.44 17.5813Z" fill="#C77E4F"/>
<path d="M283.484 100.956C289.57 94.0223 301 98.3268 301 107.553V193.447C301 202.673 289.57 206.978 283.484 200.044L245.79 157.096C242.477 153.323 242.477 147.677 245.79 143.903L283.484 100.956Z" fill="#C77E4F"/>
<path d="M283.929 258.071C290.229 251.771 301 256.233 301 265.142V290C301 295.523 296.523 300 291 300H266.142C257.233 300 252.771 289.229 259.071 282.929L283.929 258.071Z" fill="#C77E4F"/>
<path d="M42.9289 282.929C49.2286 289.229 44.7669 300 35.8579 300H11C5.47718 300 1.00003 295.523 1.00003 290L1.00003 265.142C1.00003 256.233 11.7714 251.771 18.0711 258.071L42.9289 282.929Z" fill="#C77E4F"/>
<path d="M19.0711 41.9289C12.7714 48.2286 2 43.7669 2 34.8579L2 10C2 4.47718 6.47716 3.01172e-05 12 3.03586e-05L36.8579 3.14452e-05C45.7669 3.18346e-05 50.2286 10.7715 43.9289 17.0711L19.0711 41.9289Z" fill="#C77E4F"/>
<path d="M259.071 17.0711C252.771 10.7714 257.233 1.33172e-06 266.142 2.11057e-06L291 4.28371e-06C296.523 4.76654e-06 301 4.47716 301 10L301 34.8579C301 43.7669 290.229 48.2286 283.929 41.9289L259.071 17.0711Z" fill="#C77E4F"/>
<path d="M200.044 283.484C206.978 289.57 202.673 301 193.447 301H107.553C98.3269 301 94.0224 289.57 100.957 283.484L143.904 245.79C147.677 242.477 153.323 242.477 157.097 245.79L200.044 283.484Z" fill="#C77E4F"/>
<path d="M17.5157 200.044C11.4297 206.978 0 202.673 0 193.447L0 107.553C0 98.3269 11.4297 94.0224 17.5157 100.957L55.2102 143.904C58.5226 147.677 58.5226 153.323 55.2102 157.097L17.5157 200.044Z" fill="#C77E4F"/>
<rect x="108" y="107" width="18" height="18" rx="2" fill="#A85450"/>
<rect x="143" y="107" width="18" height="18" rx="2" fill="#A22E2C"/>
<rect x="178" y="107" width="18" height="18" rx="2" fill="#4E6D33"/>
<rect x="178" y="142" width="18" height="18" rx="2" fill="#CD3B36"/>
<rect x="178" y="177" width="18" height="18" rx="2" fill="#AC6867"/>
<rect x="143" y="177" width="18" height="18" rx="2" fill="#CF7A76"/>
<rect x="108" y="177" width="18" height="18" rx="2" fill="#822523"/>
<rect x="108" y="142" width="18" height="18" rx="2" fill="#C2873F"/>
<rect x="143" y="142" width="18" height="18" rx="2" fill="#CE7A77"/>
</svg>
